<svg width="1760" height="1760" xmlns="http://www.w3.org/2000/svg" xmlns:xlink="http://www.w3.org/1999/xlink" xml:space="preserve" overflow="hidden"><defs><clipPath id="clip0"><rect x="3034" y="2186" width="1760" height="1760"/></clipPath></defs><g clip-path="url(#clip0)" transform="translate(-3034 -2186)"><rect x="3037" y="2188" width="1757" height="1756" fill="#191919" fill-opacity="1"/><path d="M3558 3096.5C3558 2899.06 3718.06 2739 3915.5 2739 4112.94 2739 4273 2899.06 4273 3096.5 4273 3293.94 4112.94 3454 3915.5 3454 3718.06 3454 3558 3293.94 3558 3096.5Z" fill="#191919" fill-rule="evenodd" fill-opacity="1"/><path d="M3918.88 2700.27 3938.22 2700.85 3958.34 2702.48 3978.18 2705.09 3997.71 2708.67 4016.9 2713.19 4035.72 2718.63 4054.14 2724.96 4072.14 2732.15 4089.69 2740.18 4106.76 2749.03 4123.33 2758.66 4139.38 2769.05 4154.88 2780.18 4169.81 2792.03 4184.14 2804.56 4197.85 2817.75 4210.91 2831.58 4223.31 2846.03 4235.02 2861.06 4246 2876.67 4256.25 2892.81 4265.72 2909.47 4274.41 2926.63 4282.28 2944.25 4289.3 2962.31 4295.46 2980.79 4300.73 2999.66 4305.07 3018.89 4308.47 3038.45 4310.9 3058.31 4312.34 3078.46 4312.76 3098.84 4312.15 3119.22 4310.52 3139.34 4307.91 3159.19 4304.33 3178.72 4299.81 3197.9 4294.37 3216.72 4288.04 3235.14 4280.85 3253.14 4272.82 3270.69 4263.97 3287.76 4254.34 3304.33 4243.95 3320.38 4232.82 3335.88 4220.97 3350.81 4208.44 3365.14 4195.25 3378.85 4181.42 3391.92 4166.97 3404.31 4151.94 3416.02 4136.33 3427 4120.19 3437.25 4103.53 3446.72 4086.37 3455.41 4068.75 3463.28 4050.69 3470.3 4032.21 3476.46 4013.34 3481.73 3994.11 3486.07 3974.55 3489.47 3954.68 3491.9 3934.54 3493.34 3914.16 3493.76 3893.78 3493.15 3873.66 3491.53 3853.81 3488.91 3834.28 3485.33 3815.1 3480.81 3796.28 3475.37 3777.86 3469.04 3759.86 3461.85 3742.31 3453.82 3725.24 3444.97 3708.67 3435.34 3692.62 3424.95 3677.12 3413.82 3662.19 3401.97 3647.86 3389.44 3634.15 3376.25 3621.08 3362.42 3608.69 3347.97 3596.98 3332.94 3586 3317.33 3575.75 3301.19 3566.28 3284.53 3557.59 3267.38 3549.72 3249.75 3542.7 3231.69 3536.54 3213.21 3531.27 3194.34 3526.93 3175.11 3523.53 3155.55 3521.1 3135.69 3519.66 3115.54 3519.24 3095.17 3519.82 3075.5 3521.36 3055.96 3523.86 3036.6 3527.29 3017.44 3531.65 2998.52 3538.02 2975.98 3564.73 2929.2 3636.37 2970.11 3612.17 3012.5 3616.04 3003.26 3611.32 3019.97 3611.82 3018.02 3607.92 3034.97 3608.32 3032.99 3605.24 3050.16 3605.55 3048.16 3603.32 3065.5 3603.53 3063.48 3602.14 3080.98 3602.25 3078.94 3601.74 3096.57 3601.74 3094.5 3602.12 3112.8 3602.03 3110.71 3603.32 3128.77 3603.11 3126.7 3605.29 3144.5 3604.99 3142.45 3608.03 3159.97 3607.63 3157.94 3611.52 3175.16 3611.02 3173.17 3615.73 3190.06 3615.13 3188.1 3620.64 3204.64 3619.95 3202.73 3626.24 3218.91 3625.46 3217.04 3632.51 3232.82 3631.65 3231 3639.43 3246.37 3638.48 3244.61 3646.97 3259.53 3645.94 3257.83 3655.12 3272.29 3654.02 3270.65 3663.87 3284.63 3662.69 3283.04 3673.19 3296.52 3671.94 3294.99 3683.05 3307.95 3681.73 3306.48 3693.45 3318.88 3692.06 3317.49 3704.36 3329.31 3702.9 3327.98 3715.75 3339.22 3714.24 3337.96 3727.62 3348.57 3726.04 3347.38 3739.93 3357.36 3738.3 3356.24 3752.68 3365.55 3750.98 3364.51 3765.83 3373.14 3764.07 3372.18 3779.37 3380.1 3777.56 3379.22 3793.27 3386.41 3791.42 3385.61 3807.53 3392.05 3805.62 3391.35 3822.11 3397.01 3820.17 3396.4 3837.01 3401.26 3835.02 3400.74 3852.2 3404.79 3850.18 3404.37 3867.67 3407.58 3865.62 3407.25 3883.4 3409.6 3881.33 3409.38 3899.38 3410.83 3897.29 3410.72 3915.59 3411.26 3913.5 3411.26 3931.8 3410.88 3929.71 3410.97 3947.77 3409.68 3945.7 3409.88 3963.5 3407.71 3961.45 3408.01 3978.97 3404.97 3976.94 3405.37 3994.16 3401.48 3992.16 3401.98 4009.06 3397.27 4007.1 3397.87 4023.64 3392.36 4021.73 3393.05 4037.9 3386.76 4036.04 3387.54 4051.82 3380.49 4050 3381.35 4065.37 3373.57 4063.61 3374.52 4078.53 3366.03 4076.83 3367.05 4091.29 3357.87 4089.65 3358.98 4103.63 3349.13 4102.04 3350.31 4115.52 3339.81 4113.99 3341.06 4126.95 3329.95 4125.48 3331.27 4137.88 3319.55 4136.49 3320.94 4148.31 3308.64 4146.98 3310.09 4158.22 3297.25 4156.96 3298.76 4167.57 3285.38 4166.38 3286.96 4176.36 3273.07 4175.24 3274.7 4184.55 3260.32 4183.51 3262.02 4192.14 3247.17 4191.18 3248.92 4199.1 3233.63 4198.22 3235.44 4205.41 3219.73 4204.61 3221.58 4211.05 3205.47 4210.35 3207.38 4216.01 3190.88 4215.4 3192.83 4220.26 3175.99 4219.74 3177.98 4223.79 3160.8 4223.37 3162.82 4226.58 3145.33 4226.25 3147.38 4228.6 3129.6 4228.38 3131.67 4229.83 3113.62 4229.72 3115.71 4230.26 3097.41 4230.25 3099.5 4229.88 3081.2 4229.97 3083.29 4228.68 3065.23 4228.88 3067.3 4226.71 3049.5 4227.01 3051.55 4223.96 3034.03 4224.37 3036.06 4220.48 3018.84 4220.98 3020.84 4216.27 3003.94 4216.87 3005.9 4211.36 2989.36 4212.05 2991.27 4205.76 2975.1 4206.53 2976.96 4199.49 2961.18 4200.35 2963 4192.57 2947.63 4193.52 2949.39 4185.03 2934.47 4186.05 2936.17 4176.87 2921.71 4177.98 2923.35 4168.13 2909.37 4169.31 2910.96 4158.81 2897.48 4160.06 2899.01 4148.95 2886.05 4150.27 2887.52 4138.55 2875.12 4139.94 2876.51 4127.64 2864.69 4129.09 2866.02 4116.25 2854.78 4117.76 2856.04 4104.38 2845.43 4105.96 2846.62 4092.07 2836.64 4093.7 2837.76 4079.32 2828.45 4081.02 2829.49 4066.17 2820.86 4067.92 2821.82 4052.63 2813.9 4054.44 2814.78 4038.73 2807.59 4040.58 2808.39 4024.47 2801.95 4026.38 2802.65 4009.88 2796.99 4011.83 2797.6 3994.99 2792.74 3996.98 2793.26 3979.8 2789.21 3981.82 2789.63 3964.33 2786.42 3966.38 2786.75 3948.6 2784.4 3950.67 2784.62 3932.62 2783.17 3934.7 2783.28 3916.41 2782.74ZM3473.64 2919.49 3665.77 2844.49 3683.98 3049.93Z" fill="#EAE5DA" fill-rule="nonzero" fill-opacity="1"/><path d="M3878 2712C3878 2693.22 3893.22 2678 3912 2678L3912 2678C3930.78 2678 3946 2693.22 3946 2712L3946 3093C3946 3111.78 3930.78 3127 3912 3127L3912 3127C3893.22 3127 3878 3111.78 3878 3093Z" fill="#BF2E16" fill-rule="evenodd" fill-opacity="1"/><path d="M4117.65 3153.01C4142.75 3167.51 4151.35 3199.61 4136.86 3224.72L4136.86 3224.72C4122.36 3249.82 4090.26 3258.43 4065.15 3243.93L3886.88 3141C3861.77 3126.51 3853.17 3094.4 3867.67 3069.3L3867.67 3069.3C3882.16 3044.19 3914.26 3035.59 3939.37 3050.08Z" fill="#EAE5DA" fill-rule="evenodd" fill-opacity="1"/><path d="M3859 2730.5C3859 2701.51 3882.51 2678 3911.5 2678L3911.5 2678C3940.5 2678 3964 2701.51 3964 2730.5L3964 3095.5C3964 3124.5 3940.49 3148 3911.5 3148L3911.5 3148C3882.51 3148 3859 3124.49 3859 3095.5Z" fill="#E71F19" fill-rule="evenodd" fill-opacity="1"/></g></svg>